<?xml version="1.0" encoding="UTF-8"?>
<svg xmlns="http://www.w3.org/2000/svg" xmlns:xlink="http://www.w3.org/1999/xlink" width="320pt" height="320pt" viewBox="0 0 320 320" version="1.1">
<g id="surface1">
<path style=" stroke:none;fill-rule:nonzero;fill:rgb(100%,87.843137%,49.019608%);fill-opacity:1;" d="M 270.128906 114.910156 C 270.128906 51.703125 216.921875 0.921875 152.855469 4.910156 C 96.589844 8.414062 51.398438 55.226562 49.738281 111.578125 C 48.339844 158.972656 76.878906 199.855469 117.84375 216.785156 C 125.195312 219.824219 129.847656 227.167969 129.847656 235.125 L 129.847656 285.253906 C 129.847656 290.785156 134.332031 295.273438 139.867188 295.273438 L 179.949219 295.273438 C 185.484375 295.273438 189.96875 290.785156 189.96875 285.253906 L 189.96875 235.121094 C 189.96875 227.15625 194.632812 219.820312 201.996094 216.773438 C 241.984375 200.242188 270.128906 160.875 270.128906 114.910156 Z M 270.128906 114.910156 "/>
<path style=" stroke:none;fill-rule:nonzero;fill:rgb(78.431373%,77.254902%,78.823529%);fill-opacity:1;" d="M 179.949219 295.273438 L 139.867188 295.273438 C 134.332031 295.273438 129.847656 290.785156 129.847656 285.253906 L 129.847656 235.152344 L 189.96875 235.152344 L 189.96875 285.253906 C 189.96875 290.785156 185.484375 295.273438 179.949219 295.273438 Z M 179.949219 295.273438 "/>
<path style=" stroke:none;fill-rule:nonzero;fill:rgb(100%,91.764706%,65.882353%);fill-opacity:1;" d="M 255.101562 114.910156 C 255.101562 167.484375 212.480469 210.101562 159.910156 210.101562 C 107.335938 210.101562 64.71875 167.484375 64.71875 114.910156 C 64.71875 62.339844 107.335938 19.722656 159.910156 19.722656 C 212.480469 19.722656 255.101562 62.339844 255.101562 114.910156 Z M 255.101562 114.910156 "/>
<path style=" stroke:none;fill-rule:nonzero;fill:rgb(100%,96.078431%,84.313725%);fill-opacity:1;" d="M 215.019531 114.910156 C 215.019531 145.347656 190.34375 170.023438 159.910156 170.023438 C 129.472656 170.023438 104.796875 145.347656 104.796875 114.910156 C 104.796875 84.476562 129.472656 59.800781 159.910156 59.800781 C 190.34375 59.800781 215.019531 84.476562 215.019531 114.910156 Z M 215.019531 114.910156 "/>
<path style=" stroke:none;fill-rule:nonzero;fill:rgb(36.470588%,32.54902%,37.647059%);fill-opacity:1;" d="M 144.878906 295.273438 L 144.878906 305.292969 C 144.878906 310.828125 149.367188 315.3125 154.898438 315.3125 L 164.917969 315.3125 C 170.453125 315.3125 174.9375 310.828125 174.9375 305.292969 L 174.9375 295.273438 Z M 144.878906 295.273438 "/>
<path style=" stroke:none;fill-rule:nonzero;fill:rgb(100%,87.843137%,49.019608%);fill-opacity:1;" d="M 179.949219 124.929688 L 159.910156 79.839844 L 139.867188 124.929688 L 139.867188 235.152344 L 179.949219 235.152344 Z M 179.949219 124.929688 "/>
<path style=" stroke:none;fill-rule:nonzero;fill:rgb(100%,81.568627%,39.215686%);fill-opacity:1;" d="M 139.867188 124.929688 L 139.867188 160.003906 L 159.910156 160.003906 L 159.910156 79.839844 Z M 139.867188 124.929688 "/>
<path style=" stroke:none;fill-rule:nonzero;fill:rgb(70.196078%,89.803922%,62.352941%);fill-opacity:1;" d="M 179.949219 129.941406 C 179.949219 135.472656 175.460938 139.960938 169.929688 139.960938 C 166.054688 139.960938 162.695312 137.761719 161.027344 134.546875 C 160.578125 133.679688 159.238281 133.679688 158.789062 134.546875 C 157.121094 137.761719 153.761719 139.960938 149.886719 139.960938 C 144.355469 139.960938 139.867188 135.472656 139.867188 129.941406 L 139.867188 235.152344 L 179.949219 235.152344 Z M 179.949219 129.941406 "/>
<path style=" stroke:none;fill-rule:nonzero;fill:rgb(58.431373%,83.921569%,64.313725%);fill-opacity:1;" d="M 159.910156 220.121094 L 159.910156 133.894531 C 159.464844 133.894531 159.015625 134.109375 158.789062 134.546875 C 157.121094 137.761719 153.761719 139.960938 149.886719 139.960938 C 144.355469 139.960938 139.867188 135.472656 139.867188 129.941406 L 139.867188 235.152344 L 179.949219 235.152344 L 179.949219 220.121094 Z M 159.910156 220.121094 "/>
<path style=" stroke:none;fill-rule:nonzero;fill:rgb(36.470588%,32.54902%,37.647059%);fill-opacity:1;" d="M 159.910156 79.839844 L 146.546875 109.902344 L 173.269531 109.902344 Z M 159.910156 79.839844 "/>
<path style=" stroke:none;fill-rule:nonzero;fill:rgb(29.411765%,24.705882%,30.588235%);fill-opacity:1;" d="M 146.546875 109.902344 L 159.910156 109.902344 L 159.910156 79.839844 Z M 146.546875 109.902344 "/>
<path style=" stroke:none;fill-rule:nonzero;fill:rgb(71.372549%,69.411765%,71.764706%);fill-opacity:1;" d="M 129.847656 235.152344 L 129.847656 285.25 C 129.847656 290.785156 134.332031 295.269531 139.867188 295.269531 L 149.886719 295.269531 L 149.886719 235.152344 Z M 129.847656 235.152344 "/>
<path style=" stroke:none;fill-rule:nonzero;fill:rgb(0%,0%,0%);fill-opacity:1;" d="M 265.0625 68.507812 C 258.808594 54.359375 249.898438 41.792969 238.582031 31.15625 C 215.230469 9.214844 184.683594 -1.765625 152.566406 0.230469 C 94.007812 3.875 46.785156 52.722656 45.050781 111.441406 C 44.347656 135.3125 50.898438 158.394531 63.996094 178.191406 C 76.75 197.46875 94.75 212.3125 116.050781 221.117188 C 121.585938 223.402344 125.160156 228.902344 125.160156 235.125 L 125.160156 285.253906 C 125.160156 293.363281 131.757812 299.960938 139.867188 299.960938 L 140.191406 299.960938 L 140.191406 305.292969 C 140.191406 313.402344 146.789062 320 154.898438 320 L 164.917969 320 C 173.027344 320 179.625 313.402344 179.625 305.292969 L 179.625 299.960938 L 179.949219 299.960938 C 188.054688 299.960938 194.65625 293.363281 194.65625 285.253906 L 194.65625 235.121094 C 194.65625 228.902344 198.238281 223.402344 203.785156 221.105469 C 224.550781 212.523438 242.234375 198.140625 254.929688 179.519531 C 267.9375 160.4375 274.8125 138.09375 274.8125 114.910156 C 274.816406 98.769531 271.535156 83.15625 265.0625 68.507812 Z M 185.28125 239.839844 L 185.28125 250.503906 L 179.949219 250.503906 C 177.359375 250.503906 175.261719 252.601562 175.261719 255.191406 C 175.261719 257.78125 177.359375 259.878906 179.949219 259.878906 L 185.28125 259.878906 L 185.28125 270.542969 L 134.535156 270.542969 L 134.535156 259.878906 L 159.910156 259.878906 C 162.496094 259.878906 164.597656 257.78125 164.597656 255.191406 C 164.597656 252.601562 162.496094 250.503906 159.910156 250.503906 L 134.535156 250.503906 L 134.535156 239.839844 Z M 145.445312 123.921875 L 149.59375 114.585938 L 170.222656 114.585938 L 174.371094 123.921875 C 174.960938 125.25 175.261719 126.664062 175.261719 128.121094 L 175.261719 129.941406 C 175.261719 132.878906 172.867188 135.273438 169.929688 135.273438 C 166.988281 135.273438 164.597656 132.878906 164.597656 129.941406 C 164.597656 127.351562 162.496094 125.253906 159.910156 125.253906 C 157.320312 125.253906 155.222656 127.351562 155.222656 129.941406 C 155.222656 132.878906 152.828125 135.273438 149.886719 135.273438 C 146.949219 135.273438 144.554688 132.878906 144.554688 129.941406 L 144.554688 128.121094 C 144.554688 126.664062 144.855469 125.25 145.445312 123.921875 Z M 153.761719 105.214844 L 159.90625 91.382812 L 166.054688 105.214844 Z M 144.554688 143.644531 C 146.210938 144.289062 148.007812 144.648438 149.886719 144.648438 C 151.769531 144.648438 153.566406 144.289062 155.21875 143.644531 L 155.21875 149.984375 C 155.21875 152.570312 157.320312 154.671875 159.90625 154.671875 C 162.496094 154.671875 164.59375 152.570312 164.59375 149.984375 L 164.59375 143.644531 C 166.25 144.289062 168.046875 144.648438 169.925781 144.648438 C 171.808594 144.648438 173.605469 144.289062 175.261719 143.644531 L 175.261719 230.464844 L 164.59375 230.464844 L 164.59375 170.023438 C 164.59375 167.429688 162.496094 165.335938 159.90625 165.335938 C 157.320312 165.335938 155.21875 167.429688 155.21875 170.023438 L 155.21875 230.464844 L 144.554688 230.464844 Z M 170.25 305.292969 C 170.25 308.230469 167.859375 310.625 164.917969 310.625 L 154.898438 310.625 C 151.957031 310.625 149.566406 308.230469 149.566406 305.292969 L 149.566406 299.960938 L 170.25 299.960938 Z M 179.949219 290.585938 L 139.867188 290.585938 C 136.929688 290.585938 134.535156 288.191406 134.535156 285.253906 L 134.535156 279.917969 L 185.28125 279.917969 L 185.28125 285.253906 C 185.28125 288.191406 182.886719 290.585938 179.949219 290.585938 Z M 247.183594 174.238281 C 235.523438 191.347656 219.277344 204.558594 200.203125 212.445312 C 192.574219 215.597656 187.234375 222.410156 185.726562 230.464844 L 184.636719 230.464844 L 184.636719 128.121094 C 184.636719 125.34375 184.066406 122.648438 182.9375 120.113281 L 164.191406 77.9375 C 163.441406 76.242188 161.761719 75.152344 159.90625 75.152344 C 158.058594 75.152344 156.378906 76.242188 155.625 77.9375 L 136.878906 120.113281 C 135.753906 122.648438 135.179688 125.34375 135.179688 128.121094 L 135.179688 230.464844 L 134.089844 230.464844 C 132.585938 222.40625 127.25 215.601562 119.632812 212.449219 C 100.0625 204.363281 83.53125 190.730469 71.8125 173.019531 C 59.789062 154.84375 53.773438 133.644531 54.421875 111.714844 C 56.011719 57.796875 99.378906 12.933594 153.148438 9.585938 C 155.433594 9.445312 157.710938 9.375 159.976562 9.375 C 186.960938 9.375 212.378906 19.398438 232.160156 37.992188 C 253.621094 58.15625 265.441406 85.472656 265.441406 114.910156 C 265.441406 136.203125 259.128906 156.71875 247.183594 174.238281 Z M 247.183594 174.238281 "/>
<path style=" stroke:none;fill-rule:nonzero;fill:rgb(0%,0%,0%);fill-opacity:1;" d="M 119.828125 110.222656 L 89.769531 110.222656 C 87.179688 110.222656 85.082031 112.320312 85.082031 114.910156 C 85.082031 117.5 87.179688 119.597656 89.769531 119.597656 L 119.828125 119.597656 C 122.417969 119.597656 124.515625 117.5 124.515625 114.910156 C 124.515625 112.320312 122.417969 110.222656 119.828125 110.222656 Z M 119.828125 110.222656 "/>
<path style=" stroke:none;fill-rule:nonzero;fill:rgb(0%,0%,0%);fill-opacity:1;" d="M 127.542969 86.53125 L 112.496094 76 C 110.375 74.515625 107.453125 75.03125 105.96875 77.152344 C 104.484375 79.273438 105 82.195312 107.121094 83.679688 L 122.164062 94.210938 C 122.984375 94.785156 123.921875 95.058594 124.847656 95.058594 C 126.324219 95.058594 127.78125 94.363281 128.691406 93.058594 C 130.179688 90.941406 129.660156 88.015625 127.542969 86.53125 Z M 127.542969 86.53125 "/>
<path style=" stroke:none;fill-rule:nonzero;fill:rgb(0%,0%,0%);fill-opacity:1;" d="M 117.140625 139.128906 L 107.121094 146.140625 C 105 147.625 104.484375 150.550781 105.96875 152.667969 C 106.878906 153.972656 108.335938 154.671875 109.8125 154.671875 C 110.738281 154.671875 111.675781 154.394531 112.496094 153.824219 L 122.515625 146.808594 C 124.636719 145.320312 125.152344 142.398438 123.667969 140.28125 C 122.183594 138.160156 119.261719 137.644531 117.140625 139.128906 Z M 117.140625 139.128906 "/>
<path style=" stroke:none;fill-rule:nonzero;fill:rgb(0%,0%,0%);fill-opacity:1;" d="M 230.046875 110.222656 L 199.988281 110.222656 C 197.398438 110.222656 195.300781 112.320312 195.300781 114.910156 C 195.300781 117.5 197.398438 119.597656 199.988281 119.597656 L 230.046875 119.597656 C 232.636719 119.597656 234.734375 117.5 234.734375 114.910156 C 234.734375 112.320312 232.640625 110.222656 230.046875 110.222656 Z M 230.046875 110.222656 "/>
<path style=" stroke:none;fill-rule:nonzero;fill:rgb(0%,0%,0%);fill-opacity:1;" d="M 212.699219 83.679688 C 214.820312 82.195312 215.335938 79.273438 213.847656 77.152344 C 212.363281 75.03125 209.441406 74.515625 207.320312 76 L 192.273438 86.53125 C 190.15625 88.015625 189.636719 90.941406 191.125 93.058594 C 192.035156 94.363281 193.492188 95.0625 194.96875 95.0625 C 195.894531 95.0625 196.832031 94.785156 197.652344 94.210938 Z M 212.699219 83.679688 "/>
<path style=" stroke:none;fill-rule:nonzero;fill:rgb(0%,0%,0%);fill-opacity:1;" d="M 212.699219 146.140625 L 202.679688 139.125 C 200.554688 137.644531 197.632812 138.160156 196.148438 140.28125 C 194.664062 142.398438 195.179688 145.320312 197.300781 146.804688 L 207.320312 153.820312 C 208.140625 154.394531 209.078125 154.667969 210.003906 154.667969 C 211.480469 154.667969 212.9375 153.972656 213.847656 152.667969 C 215.335938 150.550781 214.816406 147.625 212.699219 146.140625 Z M 212.699219 146.140625 "/>
</g>
</svg>
